<svg version="1.2" xmlns="http://www.w3.org/2000/svg" viewBox="0 0 16 15" width="16" height="15"><defs><clipPath clipPathUnits="userSpaceOnUse" id="cp1"><path d="m-751-74h960v1628h-960z"/></clipPath></defs><style></style><g clip-path="url(#cp1)"><path fill-rule="evenodd" d="m15.5 7.3c0 4.1-3.3 7.3-7.3 7.3-4.1 0-7.3-3.2-7.3-7.3 0-4 3.2-7.3 7.3-7.3 4 0 7.3 3.3 7.3 7.3zm-4.7 2.7c0.3-0.3 0.3-0.6 0-0.8l-1.8-1.9 1.8-1.8c0.3-0.3 0.3-0.6 0-0.8-0.2-0.3-0.5-0.3-0.8 0l-1.8 1.8-1.9-1.8c-0.2-0.3-0.5-0.3-0.8 0q-0.1 0.1-0.1 0.4 0 0.2 0.1 0.4l1.9 1.8-1.9 1.9q-0.1 0.1-0.1 0.4 0 0.2 0.1 0.4c0.3 0.2 0.6 0.2 0.8 0l1.9-1.9 1.8 1.9c0.3 0.2 0.6 0.2 0.8 0z"/></g></svg>